<?xml version="1.0" encoding="UTF-8"?>
<svg width="18px" height="18px" viewBox="0 0 18 18" version="1.1" xmlns="http://www.w3.org/2000/svg" xmlns:xlink="http://www.w3.org/1999/xlink">
    <!-- Generator: Sketch 56.3 (81716) - https://sketch.com -->
    <title>Shape</title>
    <desc>Created with Sketch.</desc>
    <g id="Page-1" stroke="none" stroke-width="1" fill="none" fill-rule="evenodd">
        <g id="smiling-emoticon-square-face" fill="#6DD400" fill-rule="nonzero">
            <path d="M15.3672729,2.63357785 C11.8561499,-0.877884582 6.14361663,-0.877884582 2.6331725,2.63272926 C-0.877950498,6.14334311 -0.877611062,11.8560461 2.63351194,15.3673389 C6.14361663,18.877783 11.8561499,18.877783 15.3669335,15.36666 C18.8777171,11.8560461 18.8775474,6.14368255 15.3672729,2.63357785 Z M14.3847763,14.3848422 C11.4157321,17.3538864 6.58454362,17.3542258 3.61532973,14.3851816 C0.645606693,11.4156283 0.645946129,6.58393067 3.61532973,3.6148865 C6.5843739,0.646012045 11.4153927,0.645672609 14.3851157,3.61522593 C17.3541599,6.5842701 17.3538204,11.4159677 14.3847763,14.3848422 Z M5.6414215,6.56305537 C5.6414215,5.98194143 6.11272798,5.51063495 6.69384192,5.51063495 C7.27478614,5.51063495 7.74609263,5.98177171 7.74609263,6.56305537 C7.74609263,7.14450874 7.27478614,7.61564551 6.69384192,7.61564551 C6.11272798,7.61564551 5.6414215,7.14450874 5.6414215,6.56305537 Z M10.4133784,6.56305537 C10.4133784,5.98194143 10.8850244,5.51063495 11.4661383,5.51063495 C12.0470825,5.51063495 12.518389,5.98177171 12.518389,6.56305537 C12.518389,7.14450874 12.0472522,7.61564551 11.4661383,7.61564551 C10.8850244,7.61564551 10.4133784,7.14450874 10.4133784,6.56305537 Z M12.9014422,10.8733798 C12.2492165,12.3816623 10.7217558,13.3561823 9.01032093,13.3561823 C7.2620573,13.3561823 5.72560155,12.3767405 5.09594831,10.8608206 C4.98800775,10.601322 5.1110532,10.3032975 5.37089123,10.1953569 C5.43470515,10.1690507 5.50089511,10.1564915 5.56606677,10.1564915 C5.76565497,10.1564915 5.95506009,10.2744454 6.03635495,10.4704696 C6.50766143,11.6052031 7.67498084,12.3380448 9.01032093,12.3380448 C10.3154512,12.3380448 11.4759819,11.604694 11.966806,10.4692815 C12.0784803,10.2111407 12.3782021,10.0921685 12.6361732,10.2040125 C12.8941443,10.3158566 13.0131166,10.6154086 12.9014422,10.8733798 Z" id="Shape"></path>
        </g>
    </g>
</svg>
